<?xml version="1.0" encoding="UTF-8" standalone="no"?>
<!-- Created with Inkscape (http://www.inkscape.org/) -->

<svg
   xmlns:dc="http://purl.org/dc/elements/1.1/"
   xmlns:cc="http://creativecommons.org/ns#"
   xmlns:rdf="http://www.w3.org/1999/02/22-rdf-syntax-ns#"
   xmlns:svg="http://www.w3.org/2000/svg"
   xmlns="http://www.w3.org/2000/svg"
   xmlns:xlink="http://www.w3.org/1999/xlink"
   xmlns:sodipodi="http://sodipodi.sourceforge.net/DTD/sodipodi-0.dtd"
   xmlns:inkscape="http://www.inkscape.org/namespaces/inkscape"
   width="147.88004mm"
   height="117.74017mm"
   viewBox="0 0 147.88004 117.74017"
   version="1.1"
   id="svg8"
   inkscape:version="0.92.2 5c3e80d, 2017-08-06"
   sodipodi:docname="nessi.svg">
  <defs
     id="defs2">
    <linearGradient
       inkscape:collect="always"
       id="linearGradient1090">
      <stop
         style="stop-color:#000000;stop-opacity:1;"
         offset="0"
         id="stop1086" />
      <stop
         style="stop-color:#848cc0;stop-opacity:0"
         offset="1"
         id="stop1088" />
    </linearGradient>
    <linearGradient
       inkscape:collect="always"
       xlink:href="#linearGradient1090"
       id="linearGradient1092"
       x1="350.84143"
       y1="64.771156"
       x2="364.96149"
       y2="556.1745"
       gradientUnits="userSpaceOnUse"
       gradientTransform="translate(83.640625,381.28723)" />
  </defs>
  <sodipodi:namedview
     id="base"
     pagecolor="#ffffff"
     bordercolor="#666666"
     borderopacity="1.0"
     inkscape:pageopacity="0.0"
     inkscape:pageshadow="2"
     inkscape:zoom="0.73037413"
     inkscape:cx="621.37755"
     inkscape:cy="163.80888"
     inkscape:document-units="mm"
     inkscape:current-layer="layer1"
     showgrid="false"
     fit-margin-top="0"
     fit-margin-left="0"
     fit-margin-right="0"
     fit-margin-bottom="0" />
  <metadata
     id="metadata5">
    <rdf:RDF>
      <cc:Work
         rdf:about="">
        <dc:format>image/svg+xml</dc:format>
        <dc:type
           rdf:resource="http://purl.org/dc/dcmitype/StillImage" />
        <dc:title />
      </cc:Work>
    </rdf:RDF>
  </metadata>
  <g
     inkscape:label="Layer 1"
     inkscape:groupmode="layer"
     id="layer1"
     transform="translate(-22.129915,-100.88224)">
    <path
       style="fill:url(#linearGradient1092);fill-opacity:1;stroke-width:1.76168776"
       d="m 368.01953,595.61328 c -60.22927,0.5489 -29.78173,31.87587 -216.40625,1.77734 6.77152,33.0841 -3.98124,97.65548 -3.2539,122.83594 0.90595,31.36479 -2.1708,47.55518 -11.7129,61.65625 -11.55692,17.07855 -15.4542,19.12398 -31.3496,16.45117 -11.364364,-1.91092 -21.656255,-2.21152 -21.656255,-0.63281 0,1.30349 16.934955,20.89302 21.068355,24.3711 1.6972,1.42805 4.28965,2.85017 5.75977,3.1582 1.47012,0.30799 3.48019,0.7191 4.4668,0.91601 3.6607,0.72976 14.11596,-1.44304 19.41406,-4.03515 10.38217,-5.07954 24.38413,-20.62866 37.75977,-41.9336 12.20364,-19.43811 14.94264,-29.96356 18.09374,-69.50781 3.72405,-46.73363 5.44001,-56.50312 11.84571,-67.43359 13.58783,-21.90097 56.5335,-27.01883 84.26367,-27.27735 40.58976,1.90952 93.73188,45.79345 143.59961,-13.68164 -1.89702,0.15936 -11.61453,-0.48071 -55.77149,-6.61718 -2.14192,-0.0494 -4.17821,-0.0646 -6.12109,-0.0469 z m 61.89258,6.66406 c 0.80103,-0.0673 0.23437,-0.27539 0.23437,-0.27539 -0.0784,0.0941 -0.15595,0.18186 -0.23437,0.27539 z M 625.75,599.30469 601.61914,610.76953 c 0,0 32.92283,9.53278 28.29102,90.88477 C 659.4833,612.5559 625.75,599.30469 625.75,599.30469 Z m -163.21289,4.05859 7.71484,7.01367 c 11.94361,10.86176 24.57457,16.53046 34.375,15.42578 9.07703,-1.02311 19.81192,-7.75233 26.66602,-16.71484 l 4.37891,-5.72461 h -36.56836 z"
       transform="scale(0.26458333)"
       id="path274"
       inkscape:connector-curvature="0" />
    <path
       style="fill:#4f5c69;stroke-width:0.26458332;stroke:none;fill-opacity:0.9968254"
       d="m 98.991626,161.90308 c 16.616504,-2.30919 14.818154,-1.67802 14.818154,-1.67802 -13.21218,-15.84711 -27.740164,0.20443 -38.496426,0.71045 -7.33694,-0.0684 -18.259434,-5.82578 -21.854548,-11.62041 -1.69484,-2.89202 -2.14885,-5.47651 -3.13417,-17.84145 -0.83373,-10.46275 -1.55872,-13.24766 -4.7876,-18.39066 -3.53897,-5.63693 -7.24366,-9.7512 -9.99061,-11.09516 -1.40179,-0.68583 -4.16787,-1.26084 -5.13643,-1.06776 -0.26104,0.0521 -0.79286,0.16129 -1.18183,0.24278 -0.38897,0.0815 -1.07462,0.4573 -1.52367,0.83514 -1.09363,0.92024 -5.57433,6.10348 -5.57433,6.44836 0,0.4177 2.72294,0.33811 5.72976,-0.16749 4.20566,-0.70718 5.23681,-0.16608 8.29458,4.35262 2.52468,3.73091 3.3384,8.01485 3.0987,16.31345 -0.19244,6.66233 2.652629,20.361 0.860999,29.1145 19.927499,10.4935 40.742478,4.26224 58.877421,3.84365 z"
       id="path270"
       inkscape:connector-curvature="0"
       sodipodi:nodetypes="ccccccccccscsscc" />
    <path
       style="fill:#4f5c69;stroke:none;stroke-width:0.46611321;fill-opacity:0.9968254"
       d="m 124.4206,158.00912 c 3.16008,-2.87384 6.50206,-4.37348 9.09509,-4.0812 2.40163,0.2707 5.24202,2.05105 7.0555,4.42238 l 1.15849,1.51486 h -9.67502 -9.67499 z"
       id="path268"
       inkscape:connector-curvature="0"
       sodipodi:nodetypes="ccscccc" />
    <path
       style="opacity:1;fill:#4f5c69;fill-opacity:0.9968254;fill-rule:evenodd;stroke:none;stroke-width:0.26458332;stroke-linecap:round;stroke-linejoin:miter;stroke-miterlimit:10;stroke-dasharray:none;stroke-dashoffset:0;stroke-opacity:1"
       d="m 159.17828,161.59939 c 0,0 8.71107,-6.21624 7.48557,-27.74062 7.82456,23.57395 -1.10082,27.08012 -1.10082,27.08012 z"
       id="path272"
       inkscape:connector-curvature="0"
       sodipodi:nodetypes="cccc" />
  </g>
</svg>
