<?xml version="1.0" encoding="UTF-8" standalone="no"?>
<!-- Created with Inkscape (http://www.inkscape.org/) -->

<svg
   xmlns:dc="http://purl.org/dc/elements/1.1/"
   xmlns:cc="http://creativecommons.org/ns#"
   xmlns:rdf="http://www.w3.org/1999/02/22-rdf-syntax-ns#"
   xmlns:svg="http://www.w3.org/2000/svg"
   xmlns="http://www.w3.org/2000/svg"
   xmlns:sodipodi="http://sodipodi.sourceforge.net/DTD/sodipodi-0.dtd"
   xmlns:inkscape="http://www.inkscape.org/namespaces/inkscape"
   version="1.1"
   id="svg2"
   xml:space="preserve"
   width="483.78"
   height="362.83466"
   viewBox="0 0 483.78 362.83466"
   sodipodi:docname="lights.svg"
   inkscape:version="0.92.2 5c3e80d, 2017-08-06"><metadata
     id="metadata8"><rdf:RDF><cc:Work
         rdf:about=""><dc:format>image/svg+xml</dc:format><dc:type
           rdf:resource="http://purl.org/dc/dcmitype/StillImage" /><dc:title></dc:title></cc:Work></rdf:RDF></metadata><defs
     id="defs6"><clipPath
       clipPathUnits="userSpaceOnUse"
       id="clipPath20"><path
         d="M 0,0 H 362 V 272 H 0 Z"
         id="path18"
         inkscape:connector-curvature="0" /></clipPath></defs><sodipodi:namedview
     pagecolor="#ffffff"
     bordercolor="#666666"
     borderopacity="1"
     objecttolerance="10"
     gridtolerance="10"
     guidetolerance="10"
     inkscape:pageopacity="0"
     inkscape:pageshadow="2"
     inkscape:window-width="640"
     inkscape:window-height="480"
     id="namedview4"
     showgrid="false"
     inkscape:zoom="1.426583"
     inkscape:cx="241.89"
     inkscape:cy="176.16001"
     inkscape:current-layer="g10" /><g
     id="g10"
     inkscape:groupmode="layer"
     inkscape:label="lights"
     transform="matrix(1.3333333,0,0,-1.3333333,0,362.83467)"><g
       id="g12" /><path
       d="m 29.598,262.036 c -5.696,0 -10.309,-4.465 -10.309,-9.976 0.004,-0.688 0.078,-1.375 0.231,-2.047 L 63.618932,107.77947 c -0.281,-0.649 -0.433,-1.301 -0.449,-1.953 0,-8.449004 21.887,-15.297004 48.882998,-15.297004 26.996,0 48.879,6.848 48.883,15.297004 L 39.902,254.314 c 0,0 -4.613,7.722 -10.304,7.722 z"
       style="fill:#fffacd;fill-opacity:0.26540001;fill-rule:evenodd;stroke:none"
       id="path22"
       inkscape:connector-curvature="0"
       sodipodi:nodetypes="sccccsccs" /><path
       d="m 39.902,252.06 c 0,-5.508 -4.613,-9.977 -10.308,-9.977 -5.692,0 -10.309,4.469 -10.309,9.977 0,5.511 4.617,9.976 10.309,9.976 5.695,0 10.308,-4.465 10.308,-9.976 z"
       style="fill:#fffacd;fill-opacity:1;fill-rule:evenodd;stroke:none"
       id="path24"
       inkscape:connector-curvature="0" /><path
       d="m 100.055,252.06 c 0,-5.508 -4.617,-9.977 -10.309,-9.977 -5.695,0 -10.308,4.469 -10.308,9.977 0,5.511 4.613,9.976 10.308,9.976 5.692,0 10.309,-4.465 10.309,-9.976 z"
       style="fill:#fffacd;fill-opacity:1;fill-rule:evenodd;stroke:none"
       id="path26"
       inkscape:connector-curvature="0" /><path
       d="m 280.504,252.06 c 0,-5.508 -4.613,-9.977 -10.309,-9.977 -5.691,0 -10.308,4.469 -10.308,9.977 0,5.511 4.617,9.976 10.308,9.976 5.696,0 10.309,-4.465 10.309,-9.976 z"
       style="fill:#fffacd;fill-opacity:1;fill-rule:evenodd;stroke:none"
       id="path28"
       inkscape:connector-curvature="0" /><path
       d="m 340.652,252.06 c 0,-5.508 -4.613,-9.977 -10.308,-9.977 -5.692,0 -10.309,4.469 -10.309,9.977 0,5.511 4.617,9.976 10.309,9.976 5.695,0 10.308,-4.465 10.308,-9.976 z"
       style="fill:#fffacd;fill-opacity:1;fill-rule:evenodd;stroke:none"
       id="path30"
       inkscape:connector-curvature="0" /><path
       d="m 269.953,262.036 c -5.695,0 -10.308,-4.465 -10.308,-9.976 0.003,-0.688 0.082,-1.375 0.23,-2.047 L 195.44924,53.780508 c -0.281,-0.649 -0.434,-1.301 -0.449,-1.957 0,-8.446 21.886,-15.293 48.883,-15.293 26.996,0 48.878,6.847 48.882,15.293 0.52573,0 -12.50324,202.490492 -12.50324,202.490492 -1.129,4.757 -4.617,7.722 -10.309,7.722 z"
       style="fill:#fffacd;fill-opacity:0.26540001;fill-rule:evenodd;stroke:none"
       id="path32"
       inkscape:connector-curvature="0"
       sodipodi:nodetypes="sccccsccs" /><path
       d="m 160.203,252.06 c 0,-5.508 -4.613,-9.977 -10.308,-9.977 -5.692,0 -10.309,4.469 -10.309,9.977 0,5.511 4.617,9.976 10.309,9.976 5.695,0 10.308,-4.465 10.308,-9.976 z"
       style="fill:#fffacd;fill-opacity:1;fill-rule:evenodd;stroke:none"
       id="path34"
       inkscape:connector-curvature="0" /><path
       d="m 220.355,252.06 c 0,-5.508 -4.617,-9.977 -10.308,-9.977 -5.695,0 -10.309,4.469 -10.309,9.977 0,5.511 4.614,9.976 10.309,9.976 5.691,0 10.308,-4.465 10.308,-9.976 z"
       style="fill:#fffacd;fill-opacity:1;fill-rule:evenodd;stroke:none"
       id="path36"
       inkscape:connector-curvature="0" /><path
       d="m 330.168,261.661 c 5.691,0 10.309,-4.469 10.309,-9.976 0.238,-0.227 -47.18603,-199.861492 -47.18603,-199.861492 -0.004,-8.446 -21.886,-15.293 -48.882,-15.293 -26.997,0 -48.883,6.847 -48.883,15.293 L 319.859,253.939 c 1.125,4.757 4.614,7.722 10.309,7.722 z"
       style="fill:#fffacd;fill-opacity:0.26540001;fill-rule:evenodd;stroke:none"
       id="path38"
       inkscape:connector-curvature="0"
       sodipodi:nodetypes="sccsccs" /><path
       d="M 89.309,262.036 C 83.617,262.036 79,257.571 79,252.06 c 0,0 -15.83007,-146.45253 -15.82607,-146.23353 0,-8.449 21.887,-15.297 48.883,-15.297 26.996,0 48.879,6.848 48.879,15.297 L 99.617,254.314 c -1.125,4.757 -4.613,7.722 -10.308,7.722 z"
       style="fill:#fffacd;fill-opacity:0.26540001;fill-rule:evenodd;stroke:none"
       id="path42"
       inkscape:connector-curvature="0"
       sodipodi:nodetypes="sccsccs" /><path
       d="m 210.195,262.036 c 5.692,0 10.305,-4.465 10.305,-9.976 0,0 71.33254,-200.231341 71.33254,-200.012341 -0.004,-8.449 -21.887,-15.297 -48.883,-15.297 -26.996,0 -48.883,6.848 -48.883,15.297 L 199.887,254.314 c 1.125,4.757 4.613,7.722 10.308,7.722 z"
       style="fill:#fffacd;fill-opacity:0.26540001;fill-rule:evenodd;stroke:none"
       id="path44"
       inkscape:connector-curvature="0"
       sodipodi:nodetypes="sccsccs" /><path
       sodipodi:nodetypes="sccsccs"
       inkscape:connector-curvature="0"
       id="path73"
       style="fill:#fffacd;fill-opacity:0.26540001;fill-rule:evenodd;stroke:none"
       d="m 149.898,262.036 c 5.692,0 10.305,-4.465 10.305,-9.976 0,0 0.73293,-146.45253 0.73293,-146.23353 -0.004,-8.449 -21.887,-15.297 -48.883,-15.297 -26.996,0 -48.883,6.848 -48.883,15.297 L 139.59,254.314 c 1.125,4.757 4.613,7.722 10.308,7.722 z" /></g></svg>