<?xml version="1.0" encoding="UTF-8" standalone="no"?>
<!-- Created with Inkscape (http://www.inkscape.org/) -->

<svg
   xmlns:dc="http://purl.org/dc/elements/1.1/"
   xmlns:cc="http://creativecommons.org/ns#"
   xmlns:rdf="http://www.w3.org/1999/02/22-rdf-syntax-ns#"
   xmlns:svg="http://www.w3.org/2000/svg"
   xmlns="http://www.w3.org/2000/svg"
   xmlns:sodipodi="http://sodipodi.sourceforge.net/DTD/sodipodi-0.dtd"
   xmlns:inkscape="http://www.inkscape.org/namespaces/inkscape"
   width="210mm"
   height="297mm"
   viewBox="0 0 210 297"
   version="1.1"
   id="svg8"
   inkscape:version="0.92.2 5c3e80d, 2017-08-06"
   sodipodi:docname="casket.svg">
  <sodipodi:namedview
     id="base"
     pagecolor="#ffffff"
     bordercolor="#666666"
     borderopacity="1.0"
     inkscape:pageopacity="0.0"
     inkscape:pageshadow="2"
     inkscape:zoom="1.9602284"
     inkscape:cx="305.16469"
     inkscape:cy="562.45401"
     inkscape:document-units="mm"
     inkscape:current-layer="layer1"
     showgrid="false"
     inkscape:snap-global="false" />
  <defs
     id="defs2" />
  <metadata
     id="metadata5">
    <rdf:RDF>
      <cc:Work
         rdf:about="">
        <dc:format>image/svg+xml</dc:format>
        <dc:type
           rdf:resource="http://purl.org/dc/dcmitype/StillImage" />
        <dc:title></dc:title>
      </cc:Work>
    </rdf:RDF>
  </metadata>
  <g
     id="layer1"
     inkscape:groupmode="layer"
     inkscape:label="Layer 1">
    <path
       inkscape:connector-curvature="0"
       id="path115"
       d="m 137.72098,151.2973 -7.8366,-5.65977 0.29024,16.10857 z"
       style="opacity:1;fill:#948981;fill-opacity:1;fill-rule:evenodd;stroke:none;stroke-width:0.26458332;stroke-linecap:round;stroke-linejoin:miter;stroke-miterlimit:10;stroke-dasharray:none;stroke-dashoffset:0;stroke-opacity:1" />
    <path
       inkscape:connector-curvature="0"
       id="path117"
       d="m 129.88438,145.63753 -33.232986,-2.46708 0.435366,22.49395 33.08786,-3.9183 z"
       style="opacity:1;fill:#55463e;fill-opacity:1;fill-rule:evenodd;stroke:none;stroke-width:0.26458332;stroke-linecap:round;stroke-linejoin:miter;stroke-miterlimit:10;stroke-dasharray:none;stroke-dashoffset:0;stroke-opacity:1" />
    <path
       inkscape:connector-curvature="0"
       id="path119"
       d="m 96.651394,143.17045 -73.867207,10.88417 8.126843,10.88416 66.17573,0.72562"
       style="opacity:1;fill:#382a25;fill-opacity:1;fill-rule:evenodd;stroke:none;stroke-width:0.26458332;stroke-linecap:round;stroke-linejoin:miter;stroke-miterlimit:10;stroke-dasharray:none;stroke-dashoffset:0;stroke-opacity:1" />
    <path
       inkscape:connector-curvature="0"
       id="path121"
       d="m 22.784187,154.05462 -6.095133,-16.9793 68.062318,-27.57322 33.087858,-1.45122 5.95002,16.83417 -27.137856,18.2854 z"
       style="opacity:1;fill:#60504a;fill-opacity:1;fill-rule:evenodd;stroke:none;stroke-width:0.26458332;stroke-linecap:round;stroke-linejoin:miter;stroke-miterlimit:10;stroke-dasharray:none;stroke-dashoffset:0;stroke-opacity:1" />
    <path
       inkscape:connector-curvature="0"
       id="path123"
       d="m 22.784187,154.05462 8.271967,4.35367 78.220866,-0.14513 28.44396,-6.96586 -7.8366,-5.65977 -33.232986,-2.46708 z"
       style="opacity:1;fill:none;fill-opacity:1;fill-rule:evenodd;stroke:none;stroke-width:0.26458332;stroke-linecap:round;stroke-linejoin:miter;stroke-miterlimit:10;stroke-dasharray:none;stroke-dashoffset:0;stroke-opacity:1" />
    <path
       inkscape:connector-curvature="0"
       id="path109"
       d="m 31.056154,158.40829 78.220866,-0.14513 -0.14512,22.49395 -78.075746,-0.14513 z"
       style="fill:#766c64;fill-rule:evenodd;stroke:none;stroke-width:0.26458332px;stroke-linecap:butt;stroke-linejoin:miter;stroke-opacity:1;fill-opacity:1" />
    <path
       id="path930"
       d="m 43.381636,169.04897 a 2.3101637,2.1855156 0 0 1 -2.310164,2.18551 2.3101637,2.1855156 0 0 1 -2.310164,-2.18551 2.3101637,2.1855156 0 0 1 2.310164,-2.18552 2.3101637,2.1855156 0 0 1 2.310164,2.18552 z"
       style="opacity:1;fill:#bba882;fill-opacity:1;fill-rule:evenodd;stroke:none;stroke-width:0.25622669;stroke-linecap:round;stroke-linejoin:miter;stroke-miterlimit:10;stroke-dasharray:none;stroke-dashoffset:0;stroke-opacity:1" />
    <path
       id="ellipse932"
       d="m 55.846422,168.92432 a 2.3101637,2.1855156 0 0 1 -2.310163,2.18551 2.3101637,2.1855156 0 0 1 -2.310164,-2.18551 2.3101637,2.1855156 0 0 1 2.310164,-2.18552 2.3101637,2.1855156 0 0 1 2.310163,2.18552 z"
       style="opacity:1;fill:#bba882;fill-opacity:1;fill-rule:evenodd;stroke:none;stroke-width:0.25622669;stroke-linecap:round;stroke-linejoin:miter;stroke-miterlimit:10;stroke-dasharray:none;stroke-dashoffset:0;stroke-opacity:1" />
    <path
       id="ellipse934"
       d="m 89.750639,169.04897 a 2.3101637,2.1855156 0 0 1 -2.310164,2.18551 2.3101637,2.1855156 0 0 1 -2.310163,-2.18551 2.3101637,2.1855156 0 0 1 2.310163,-2.18552 2.3101637,2.1855156 0 0 1 2.310164,2.18552 z"
       style="opacity:1;fill:#bba882;fill-opacity:1;fill-rule:evenodd;stroke:none;stroke-width:0.25622669;stroke-linecap:round;stroke-linejoin:miter;stroke-miterlimit:10;stroke-dasharray:none;stroke-dashoffset:0;stroke-opacity:1" />
    <path
       id="ellipse936"
       d="m 102.34007,168.92432 a 2.3101637,2.1855156 0 0 1 -2.31016,2.18551 2.3101637,2.1855156 0 0 1 -2.310167,-2.18551 2.3101637,2.1855156 0 0 1 2.310167,-2.18552 2.3101637,2.1855156 0 0 1 2.31016,2.18552 z"
       style="opacity:1;fill:#bba882;fill-opacity:1;fill-rule:evenodd;stroke:none;stroke-width:0.25622669;stroke-linecap:round;stroke-linejoin:miter;stroke-miterlimit:10;stroke-dasharray:none;stroke-dashoffset:0;stroke-opacity:1" />
    <path
       inkscape:connector-curvature="0"
       id="path107"
       d="m 22.784187,154.05462 0.145122,22.49394 8.126845,4.06342 v -22.20369 z"
       style="fill:#948981;fill-rule:evenodd;stroke:none;stroke-width:0.26458332px;stroke-linecap:butt;stroke-linejoin:miter;stroke-opacity:1;fill-opacity:1" />
    <path
       inkscape:connector-curvature="0"
       id="path111"
       d="m 109.27702,158.26316 28.44396,-6.96586 -0.14513,22.78418 -28.44395,6.67563 z"
       style="fill:#60504a;fill-rule:evenodd;stroke:none;stroke-width:0.26458332px;stroke-linecap:butt;stroke-linejoin:miter;stroke-opacity:1;fill-opacity:1" />
    <path
       id="ellipse938"
       d="m 121.80479,166.66153 a 1.9558681,1.8503366 0 0 1 -1.95587,1.85034 1.9558681,1.8503366 0 0 1 -1.95587,-1.85034 1.9558681,1.8503366 0 0 1 1.95587,-1.85034 1.9558681,1.8503366 0 0 1 1.95587,1.85034 z"
       style="opacity:1;fill:#bba882;fill-opacity:1;fill-rule:evenodd;stroke:none;stroke-width:0.21693078;stroke-linecap:round;stroke-linejoin:miter;stroke-miterlimit:10;stroke-dasharray:none;stroke-dashoffset:0;stroke-opacity:1" />
    <path
       id="ellipse940"
       d="m 132.15057,164.16858 a 1.9558681,1.8503366 0 0 1 -1.95587,1.85034 1.9558681,1.8503366 0 0 1 -1.95587,-1.85034 1.9558681,1.8503366 0 0 1 1.95587,-1.85034 1.9558681,1.8503366 0 0 1 1.95587,1.85034 z"
       style="opacity:1;fill:#bba882;fill-opacity:1;fill-rule:evenodd;stroke:none;stroke-width:0.21693078;stroke-linecap:round;stroke-linejoin:miter;stroke-miterlimit:10;stroke-dasharray:none;stroke-dashoffset:0;stroke-opacity:1" />
    <path
       sodipodi:nodetypes="cccacccsasc"
       inkscape:connector-curvature="0"
       id="path942"
       d="m 40.261259,168.862 h 1.74507 l 0.249296,3.36549 c 1.222979,0.99944 3.490589,0.0396 5.235209,0 1.829584,-0.0416 4.298744,0.85824 5.484506,-0.2493 l -0.249296,-3.11619 1.620422,-0.12465 c 0,0 0.907985,3.12322 0.498592,4.8154 0,0 -4.542885,1.00683 -6.855632,1.12184 -2.370062,0.11786 -7.104928,-0.44696 -7.104928,-0.44696 -0.819665,-1.64727 -0.623239,-5.36563 -0.623239,-5.36563 z"
       style="opacity:1;fill:#e9ddb6;fill-opacity:1;fill-rule:evenodd;stroke:none;stroke-width:0.26458332;stroke-linecap:round;stroke-linejoin:miter;stroke-miterlimit:10;stroke-dasharray:none;stroke-dashoffset:0;stroke-opacity:1" />
    <path
       style="opacity:1;fill:#e9ddb6;fill-opacity:1;fill-rule:evenodd;stroke:none;stroke-width:0.26458332;stroke-linecap:round;stroke-linejoin:miter;stroke-miterlimit:10;stroke-dasharray:none;stroke-dashoffset:0;stroke-opacity:1"
       d="m 86.754911,169.23594 h 1.74507 l 0.249296,3.36549 c 1.222979,0.99944 3.490589,0.0396 5.235209,0 1.829584,-0.0416 4.298744,0.85824 5.484506,-0.2493 l -0.249296,-3.11619 1.620424,-0.12465 c 0,0 0.90798,3.12322 0.49859,4.8154 0,0 -4.542816,1.00823 -6.855632,1.12184 -2.325286,0.11422 -6.969952,-0.44696 -6.969952,-0.44696 -0.819665,-1.64727 -0.758215,-5.36563 -0.758215,-5.36563 z"
       id="path944"
       inkscape:connector-curvature="0"
       sodipodi:nodetypes="cccacccsasc" />
    <path
       sodipodi:nodetypes="cccacccsasc"
       inkscape:connector-curvature="0"
       id="path946"
       d="m 118.96067,166.70079 1.50494,-0.35192 0.90285,2.81347 c 1.25897,0.60381 3.01836,-0.67024 4.51482,-1.05577 1.56931,-0.40436 3.88262,-0.13662 4.67885,-1.31818 l -0.8519,-2.60133 1.37196,-0.43285 c 0,0 1.42138,2.47449 1.41418,3.99695 0,0 -3.72196,1.74567 -5.68296,2.33714 -1.8924,0.57078 -5.81663,1.15312 -5.81663,1.15312 -1.04356,-1.2364 -2.03611,-4.54063 -2.03611,-4.54063 z"
       style="opacity:1;fill:#e9ddb6;fill-opacity:1;fill-rule:evenodd;stroke:none;stroke-width:0.23292993;stroke-linecap:round;stroke-linejoin:miter;stroke-miterlimit:10;stroke-dasharray:none;stroke-dashoffset:0;stroke-opacity:1" />
  </g>
</svg>
