<?xml version="1.0" encoding="UTF-8" standalone="no"?>
<!-- Created with Inkscape (http://www.inkscape.org/) -->

<svg
   xmlns:dc="http://purl.org/dc/elements/1.1/"
   xmlns:cc="http://creativecommons.org/ns#"
   xmlns:rdf="http://www.w3.org/1999/02/22-rdf-syntax-ns#"
   xmlns:svg="http://www.w3.org/2000/svg"
   xmlns="http://www.w3.org/2000/svg"
   xmlns:xlink="http://www.w3.org/1999/xlink"
   xmlns:sodipodi="http://sodipodi.sourceforge.net/DTD/sodipodi-0.dtd"
   xmlns:inkscape="http://www.inkscape.org/namespaces/inkscape"
   width="257.33203mm"
   height="192.02551mm"
   viewBox="0 0 257.33203 192.02551"
   version="1.1"
   id="svg8"
   inkscape:version="0.92.2 5c3e80d, 2017-08-06"
   sodipodi:docname="gondola.svg">
  <defs
     id="defs2">
    <linearGradient
       inkscape:collect="always"
       id="linearGradient960">
      <stop
         style="stop-color:#404040;stop-opacity:1;"
         offset="0"
         id="stop956" />
      <stop
         style="stop-color:#404040;stop-opacity:0;"
         offset="1"
         id="stop958" />
    </linearGradient>
    <linearGradient
       inkscape:collect="always"
       xlink:href="#linearGradient960"
       id="linearGradient962"
       x1="140.04211"
       y1="103.9242"
       x2="139.62778"
       y2="164.83009"
       gradientUnits="userSpaceOnUse"
       gradientTransform="translate(-29.925399,59.451574)" />
  </defs>
  <sodipodi:namedview
     id="base"
     pagecolor="#ffffff"
     bordercolor="#666666"
     borderopacity="1.0"
     inkscape:pageopacity="0.0"
     inkscape:pageshadow="2"
     inkscape:zoom="0.80627323"
     inkscape:cx="326.04516"
     inkscape:cy="336.20799"
     inkscape:document-units="mm"
     inkscape:current-layer="layer1"
     showgrid="false"
     fit-margin-top="10"
     fit-margin-left="10"
     fit-margin-right="10"
     fit-margin-bottom="10" />
  <metadata
     id="metadata5">
    <rdf:RDF>
      <cc:Work
         rdf:about="">
        <dc:format>image/svg+xml</dc:format>
        <dc:type
           rdf:resource="http://purl.org/dc/dcmitype/StillImage" />
        <dc:title />
      </cc:Work>
    </rdf:RDF>
  </metadata>
  <g
     inkscape:label="Layer 1"
     inkscape:groupmode="layer"
     id="layer1"
     transform="translate(29.925399,-59.451574)">
    <path
       style="fill:#1f1f1f;fill-opacity:1;stroke-width:3.77952743"
       d="m -74.755859,262.49414 c 0,0 0.553767,59.18901 -0.552735,70.77734 0,0 5.427592,1.8109 12.826172,-2.20117 4.374611,-2.37222 12.641674,-7.67828 18.371094,-11.79101 11.823806,-8.4875 21.432773,-9.77484 24.880859,-3.33203 6.310581,13.38338 9.642245,28.00124 11.2070315,43.39648 H -27.748047 v 17.09375 h 20.7871095 c 0.089126,3.27825 0.1254477,6.57967 0.1113281,9.90625 H -27.748047 v 17.0957 h 20.4707032 c -0.1093936,2.62637 -0.2342195,5.26121 -0.3730468,7.9043 H -27.748047 v 17.0957 h 19.0820314 c -0.1881196,2.96717 -0.3590159,5.93103 -0.5449219,8.9043 H -21.748047 v 26.86328 h 11.154297 c 4.5107188,211.54902 192.13823,209.13559 314.60541,208.10032 178.11314,-1.50568 539.88455,33.55791 516.61139,-158.78782 1.0614,-16.98913 0.78608,-19.87283 -1.75391,-18.32031 -2.9636,1.81145 -28.99325,34.60725 -53.66797,50.51562 -83.4997,25.21841 -159.37443,21.79687 -488.51172,22.23243 C 123.17817,554.32437 47.061145,532.19915 27.251953,484.78906 24.950686,478.64677 23.747965,471.75183 23.232422,464.20703 H 38.083984 V 437.34375 H 23.5 c 0.171021,-2.89319 0.383004,-5.89607 0.595703,-8.9043 h 25.083985 v -17.0957 h -23.875 c 0.176363,-2.60222 0.340426,-5.23776 0.49414,-7.9043 h 23.38086 v -17.0957 H 26.494141 c 0.06849,-3.2646 0.08955,-6.56852 0.0625,-9.90625 H 49.179688 V 359.34375 H 25.919922 C 24.311401,336.33415 19.427653,311.96536 7.7207031,287.05273 1.2391478,270.08103 -12.75381,265.23822 -35.429688,272.11719 c -16.973408,5.14906 -25.322906,4.30554 -31.632812,-3.19336 -2.976416,-3.53727 -7.693359,-6.42969 -7.693359,-6.42969 z"
       transform="scale(0.26458333)"
       id="path127"
       inkscape:connector-curvature="0"
       sodipodi:nodetypes="cccccccccccccccccccccsccccccccccccccccccccccssc" />
    <path
       sodipodi:nodetypes="cccccccccccccccccccccsccccccccccccccccccccccssc"
       inkscape:connector-curvature="0"
       id="path946"
       d="m -19.779154,241.47708 c 0,0 0.146517,-10.47457 -0.146245,-12.52534 0,0 1.436051,-0.32047 3.393592,0.38954 1.157449,0.41981 3.344776,1.35881 4.860685,2.08663 3.1283819,1.50202 5.6707544,1.72984 6.5830605,0.58967 1.6696745,-2.36844 2.5511773,-4.95533 2.9651937,-7.6798 h -5.2188029 v -3.02505 h 5.4999227 c 0.023581,-0.58015 0.033191,-1.16439 0.029455,-1.75309 h -5.5293782 v -3.02539 h 5.4162068 c -0.028944,-0.46479 -0.06197,-0.93107 -0.098702,-1.39881 h -5.3175049 v -3.0254 h 5.0487874 c -0.049773,-0.52509 -0.09499,-1.0496 -0.1441772,-1.57577 h -3.3171102 v -4.75395 h 2.951241 c 1.1934616,-37.43721 50.8365733,-37.01011 83.2393473,-36.8269 47.125773,0.26645 142.844453,-5.93862 136.686763,28.10015 0.28083,3.00654 0.20798,3.51686 -0.46406,3.24212 -0.78412,-0.32057 -7.67113,-6.12438 -14.19965,-8.93966 -22.09263,-4.46283 -42.16781,-3.85733 -129.252054,-3.93441 -40.616526,2.4108 -60.755822,6.32626 -65.9970035,14.71634 -0.6088769,1.08698 -0.9270968,2.30717 -1.0635009,3.64236 h 3.9294754 v 4.75395 H 6.2177083 c 0.045249,0.512 0.1013364,1.04341 0.157613,1.57577 h 6.6368047 v 3.0254 H 6.6951986 c 0.046663,0.46051 0.090071,0.92692 0.1307412,1.39881 h 6.1861862 v 3.02539 H 7.0099081 c 0.018121,0.57773 0.023693,1.16242 0.016536,1.75309 h 5.9856819 v 3.02505 H 6.8579793 c -0.4255879,4.07197 -1.7177462,8.38447 -4.81521,12.79321 -1.71491145,3.00345 -5.4172148,3.86047 -11.4168741,2.64312 -4.4908812,-0.91123 -6.7000192,-0.76195 -8.3695152,0.56512 -0.78751,0.62598 -2.035534,1.13785 -2.035534,1.13785 z"
       style="fill:url(#linearGradient962);fill-opacity:1;stroke-width:0.99999994" />
  </g>
</svg>
